<svg id="Layer_1" data-name="Layer 1" xmlns="http://www.w3.org/2000/svg" viewBox="0 0 462.79 53.66"><defs><style>.cls-1{fill:#161420;}</style></defs><title>bats</title><path class="cls-1" d="M171.19,219.17c-6.46,1-13.43,10-18.2,14.12s-7.82,3.4-7.82,3.4,3.91-7.14,2.21-9.35c-2.38,1-4.08,4.42-4.08,4.42a7.93,7.93,0,0,0-6.44,0s-1.7-3.4-4.08-4.42c-1.7,2.21,2.21,9.35,2.21,9.35s-3.06.68-7.82-3.4-11.74-13.1-18.2-14.12-19.9,11.74-19.9,11.74A7.41,7.41,0,0,1,95.7,235c2.55,4.42,1.36,7.65,1.36,7.65s6.47-4.42,11.91-1.87,5.61,8.68,5.61,8.68a8.8,8.8,0,0,1,7.82-2.72c4.77.85,6.64,7.65,6.64,7.65s1.87-3.06,3.23-2.55,4.06,6.15,7.81,7.58c4.09-1.63,6.52-7.1,7.81-7.58s3.23,2.55,3.23,2.55,1.87-6.8,6.64-7.65a8.8,8.8,0,0,1,7.82,2.72s.17-6.13,5.61-8.68,11.91,1.87,11.91,1.87-1.19-3.23,1.36-7.65a7.41,7.41,0,0,1,6.63-4.08S177.65,218.15,171.19,219.17Z" transform="translate(-89.07 -213.8)"/><path class="cls-1" d="M195.53,219.8s4.66,12.16-3.84,13.83c2.84.83,7.84,7.17,4.17,12.67,1.17-1,7.5,1,12.17,5.83a13.11,13.11,0,0,1,3.83,10.33s3.5-4,5.83-2.83,3,4.67,3,4.67,1.67-4.5,2.84-3.84,1.5,5,1.5,5,1.66-4.5,4.33-3.83,4.17,5.5,4.17,5.5,1.83-6.5,7.5-8.17,14.5,1.67,14.5,1.67-1.5-5.33,1.16-8,7.34-3,7.34-3-3-10.83,6.33-13.83c-3.17-3.17-20.83,4-25,9.16-3.92,4.87-12,8.5-15.83,7.34.16.16,1.83-3.84,1.66-7.84l-2.83,3.17-2.33-.17-1.84-5S223,249.3,222,249.63s-5.67-1.83-7.67-6.67C212.82,239.23,205.19,224.63,195.53,219.8Z" transform="translate(-89.07 -213.8)"/><path class="cls-1" d="M265.86,226s5.33,0,6.83,3-.83,6.5-.83,6.5,1.5-1.16,4.33,1,1.5,6.5,1.5,6.5a10.57,10.57,0,0,1,8.84.34c4.83,2.33,6.5,9.5,6.5,9.5a4,4,0,0,1,4.16.16c2.5,1.34,3,6.34,3,6.34s1.67-6,3.5-6.34,4,1.67,4,1.67,1.84-6.33,5.17-8.67,11-1.33,11-1.33-2.33-2.83-.5-5.67,7.83-2.33,7.83-2.33-2.33-4-1-6.17,6-2.33,6-2.33-8.5-4.67-15.16-2-12.67,13.67-15.67,14.67c.17.5.17-5,.17-5l-5,6-4.17-6.5-.17,4.33s-2.16-.17-4.16-4.83-6.67-10.34-13.5-11.5S265.86,226,265.86,226Z" transform="translate(-89.07 -213.8)"/><path class="cls-1" d="M393.69,216c-5.5,3.54-9.28,12.76-12,18.42s-5.78,6.27-5.78,6.27.7-8.12-1.75-9.46c-1.77,1.9-1.95,5.7-1.95,5.7a8,8,0,0,0-5.9,2.59s-2.93-2.42-5.52-2.4c-.66,2.71,5.8,7.67,5.8,7.67s-2.53,1.86-8.53,0-16-7.25-22.35-5.57S322.25,258,322.25,258A7.4,7.4,0,0,1,330,259c4.12,3,4.34,6.45,4.34,6.45s4.13-6.65,10.13-6.51,8.64,5.67,8.64,5.67a8.83,8.83,0,0,1,6.06-5.64c4.7-1.14,9.15,4.33,9.15,4.33s.48-3.56,1.93-3.64,6.2,4,10.21,3.79c3.09-3.14,3.1-9.13,4.09-10.09s4,1,4,1-1-7,3-9.68a8.83,8.83,0,0,1,8.26-.66s-2.32-5.67,1.63-10.2S413,230.8,413,230.8s-2.39-2.48-1.84-7.55S420,214.3,420,214.3,399.2,212.42,393.69,216Z" transform="translate(-89.07 -213.8)"/><path class="cls-1" d="M480.19,220.13S475.53,232.3,484,234c-2.84.84-7.84,7.17-4.17,12.67-1.17-1-7.5,1-12.17,5.83a13.14,13.14,0,0,0-3.83,10.34s-3.5-4-5.83-2.84-3,4.67-3,4.67-1.67-4.5-2.84-3.83-1.5,5-1.5,5-1.66-4.5-4.33-3.84-4.17,5.5-4.17,5.5-1.83-6.5-7.5-8.16-14.5,1.66-14.5,1.66,1.5-5.33-1.16-8-7.34-3-7.34-3,3-10.83-6.33-13.83c3.17-3.17,20.83,4,25,9.17,3.92,4.86,12,8.5,15.83,7.33-.16.17-1.83-3.83-1.66-7.83l2.83,3.16,2.33-.16,1.84-5s1.16,6.83,2.16,7.16,5.67-1.83,7.67-6.66C462.9,239.57,470.53,225,480.19,220.13Z" transform="translate(-89.07 -213.8)"/><path class="cls-1" d="M481.53,225.63s5.33,0,6.83,3-.83,6.5-.83,6.5,1.5-1.17,4.33,1,1.5,6.5,1.5,6.5a10.57,10.57,0,0,1,8.83.33c4.84,2.34,6.5,9.5,6.5,9.5a4.08,4.08,0,0,1,4.17.17c2.5,1.33,3,6.33,3,6.33s1.67-6,3.5-6.33,4,1.67,4,1.67,1.83-6.34,5.17-8.67,11-1.33,11-1.33-2.34-2.84-.5-5.67,7.83-2.33,7.83-2.33-2.33-4-1-6.17,6-2.33,6-2.33-8.5-4.67-15.17-2S524,239.46,521,240.46c.16.5.16-5,.16-5l-5,6L512,235l-.17,4.34s-2.17-.17-4.17-4.84S501,224.13,494.19,223,481.53,225.63,481.53,225.63Z" transform="translate(-89.07 -213.8)"/></svg>