<svg id="Layer_1" data-name="Layer 1" xmlns="http://www.w3.org/2000/svg" viewBox="0 0 466.4 55.92"><defs><style>.cls-1{fill:#161420;}</style></defs><title>Untitled-1</title><path class="cls-1" d="M547,262.78a7.24,7.24,0,0,0-1.15-.25,19,19,0,0,0,.82-2.42,15.94,15.94,0,0,0,.66-4.25,7.36,7.36,0,0,0-2.33,3.8,8.06,8.06,0,0,0-.26,2.75c-.37,0-.78-.06-1.2-.08.15-.4.28-.81.41-1.25a15.21,15.21,0,0,0,.66-3.2,4.12,4.12,0,0,0-2.31,2.71,4.74,4.74,0,0,0-.18,1.69l-1.71,0c.54-3.28,1.18-7.23,1.82-11.17a7.08,7.08,0,0,0,6.14-4.25l4.78.71.5-3.3-4.73-.71a7.08,7.08,0,0,0-4.52-6.09c.39-2.54.64-4.26.64-4.56l-3.34,0c0,.33-.25,1.88-.61,4.19a7.06,7.06,0,0,0-5.79,4.47l-4-.6-.49,3.31,4,.6a7.08,7.08,0,0,0,4.08,5.65c-.64,4-1.31,8.07-1.93,11.83l-2.12,0c.08-1,.16-2.06.29-3.19.23-2.1.56-4,.7-5.5a8.83,8.83,0,0,0-2.42,5.31,9.7,9.7,0,0,0,.23,3.41l-1.45,0c.49-6.32.38-19-8.57-18.46s-8.19,13-7.27,18.87c-1,0-1.9,0-2.83,0a9.17,9.17,0,0,0-.06-1.72,7.46,7.46,0,0,0-1.36-3.5,7.43,7.43,0,0,0-.35,3.74,8.43,8.43,0,0,0,.35,1.48l-1.19,0a13.9,13.9,0,0,0-.37-4.43,12.48,12.48,0,0,0-3-5.76c.23,1.65.76,3.8,1.33,6.17.36,1.45.69,2.8,1,4h-1.49l-2.05-13.63h6.13l.18-5.21-6.5.75L504,238l-3.72.74,1.12,6.69-6,.37.75,5.2,5.2-1.11,1.8,12.9c-1,0-2,0-3,.07a6.34,6.34,0,0,0,.39-2.11,5.66,5.66,0,0,0-.84-3.13,5.59,5.59,0,0,0-.89,3.12,6.15,6.15,0,0,0,.37,2.16l-1.1.05a9.36,9.36,0,0,0,.08-2.27,8.25,8.25,0,0,0-1.17-3.81,8.35,8.35,0,0,0-.55,3.94,10.21,10.21,0,0,0,.43,2.2l-1.44.07c-.06-6.18-1.07-22-10.06-19.88S480.08,259,481.78,264l-1.75.11a7.82,7.82,0,0,0-.17-1.89,6.74,6.74,0,0,0-2-3.62,12.21,12.21,0,0,0,.31,4,14.14,14.14,0,0,0,.44,1.59l-1.48.08-.63-6.6-3.14.05c.19-2.16.42-4.11.45-5.64a9.76,9.76,0,0,0-2.17,5.49.91.91,0,0,1,0,.17l-.79,0,.46-7.15s-2.16-.06-4.8-.16a2.78,2.78,0,0,0-.65-2.87l0,0a2.62,2.62,0,0,0-.77-.52,35.72,35.72,0,0,0-.08-3.58l2.31.08-.25-2.42H464.8l0-3-2.09.33-.07,2.67H460l-.09,2.17,2.62.09,0,1.2c-.08.88-.14,1.76-.14,2.62a2.6,2.6,0,0,0-.46.36l0,0a2.75,2.75,0,0,0-.72,2.63c-1.94-.11-4-.34-4-.34l1.26,8.07-1.23,0c0-.15-.05-.3-.09-.45a11.88,11.88,0,0,0-2-4.42,12.22,12.22,0,0,0,.28,4.82.25.25,0,0,1,0,.07h-.21c-.05-.26-.1-.52-.17-.78a11.17,11.17,0,0,0-3-5.36c.22,1.57.74,3.58,1.3,5.79,0,.13.07.25.1.37l-2.28,0,.58,6.14L449.3,264c0-1,0-2.08-.05-3.26,0-1.65,0-3.14-.07-4.38a6,6,0,0,0-1.65,4.4,6.68,6.68,0,0,0,.83,3.18l-1.46-.11,1.74-30,11.89-.56,1.49-5.76-14.5,1.49.38-8.92-6.69.74,1.48,7.81-14.86,1.48,1.86,4.46,13-1.85v30.7l-1-.1a6.29,6.29,0,0,0,.22-2.71,5.63,5.63,0,0,0-1.82-3.57,15,15,0,0,0,.11,3.8,18.63,18.63,0,0,0,.46,2.36l-2.49-.29-.33-21.46-5,.56a3.25,3.25,0,0,0-6.48.37c0,.12,0,.24.05.36l-5,.57,3.57,18.33q-1.66-.06-3.45-.09a2.9,2.9,0,0,0,.12-.42,3.4,3.4,0,0,0-.64-2.84,6.15,6.15,0,0,0-1.05,2.52,5.93,5.93,0,0,0-.1.72h-1.73a12.12,12.12,0,0,0,.56-2.23,10.24,10.24,0,0,0-.18-4.46,10.23,10.23,0,0,0-1.52,4.2,11.93,11.93,0,0,0-.14,2.49h-2.33l5.41-14-2.86-.41a2.4,2.4,0,0,0-2.35-3,2.32,2.32,0,0,0-2.38,2.33l-2.82-.41,1.49-6.31-9,.46c-.31-4.71-1.62-12.41-6.88-13.1l-.54-3.54,3.6-.55-.19-2.41-3.77.56-.32-2.05-2.23.74.24,1.65-2.65.4.37,2.41,2.62-.4.48,3.33c-6,1.38-5,9.42-4,13.64l-6.73.34,2.23,7.06-1.44.14a2.57,2.57,0,0,0-2.65-2.2,2.64,2.64,0,0,0-2.7,2.71l-1,.1,2.9,13.87-4,.25c0-.41-.05-.82-.08-1.25-.07-1-.15-2-.27-2.88a3.12,3.12,0,0,0-1.45,3,3.71,3.71,0,0,0,.31,1.23l-1.31.08-.18,0c.09-1.12.17-2.36.3-3.69.2-2.06.48-3.92.57-5.4a8.64,8.64,0,0,0-2.29,5.23,9.43,9.43,0,0,0,.44,3.92l-1.58.1-1.59-13,7.82-1.16-.75-3-7.46.94-.71-5.77-4.09.38.74,5.9-3.84.47.31-12.13h11l.55-5.58-11.38-.22.23-9.25-6.13-.56v9.69l-11.15-.22,1.68,6.14h9.47v27.73l-1.95,0a13.41,13.41,0,0,0,.1-4.15,12.64,12.64,0,0,0-1.42-4.77,12.58,12.58,0,0,0-.29,5,14.3,14.3,0,0,0,1,3.95l-1,0c-1.24-7.57-6.9-36.84-19.8-35.59-.71-2.48-1.51-4.94-2.42-7.36l.76-.25A12.81,12.81,0,0,0,332,220l1.7-.54-.3-1.15a2,2,0,0,0-.14-.53l-.31-1.2-1.3.45c-1.27.35-2.54.8-3.81,1.28l-2-6a23.8,23.8,0,0,1-2.75.88,47.51,47.51,0,0,0,1.76,6.28l-4.76,1.72,1.25,2.25,4.33-1.4c.93,2.94,1.87,5.83,2.35,7.29-6.8,3.72-4.93,16.73-2.49,26.16a13.25,13.25,0,0,0-.33,1.73,13.65,13.65,0,0,0,.38,5.44l-2.5,0a4.64,4.64,0,0,0,.22-2.38,4.38,4.38,0,0,0-1.71-2.93,9,9,0,0,0,0,3.2,9.92,9.92,0,0,0,.56,2.1h-1.7a13.63,13.63,0,0,0,.56-5.3,12.59,12.59,0,0,0-2.51-6.71c.18,1.82.56,4.2.79,6.86.17,1.88.24,3.63.32,5.14h-2.13a9.82,9.82,0,0,0,.31-1.47,9.17,9.17,0,0,0,0-2.82,3.36,3.36,0,0,0-1.7,2.58,3.84,3.84,0,0,0,.16,1.71h-2c.15-.94.28-2,.43-3.11.21-1.65.43-3.15.48-4.4a6.3,6.3,0,0,0-2.19,4.17,6.9,6.9,0,0,0,.36,3.34h-2.56A12.79,12.79,0,0,0,311,260a11.39,11.39,0,0,0-.56-3.63,5.63,5.63,0,0,0-1.17,3.65,6.11,6.11,0,0,0,.62,2.63l-2.49,0c.55-3.36,1.23-7.49,1.89-11.59a7.08,7.08,0,0,0,6.14-4.25l4.78.71.5-3.3-4.73-.71a7.06,7.06,0,0,0-4.52-6.09c.4-2.54.64-4.26.64-4.56l-3.34,0c0,.33-.25,1.88-.61,4.19a7.08,7.08,0,0,0-5.79,4.47l-3.95-.6-.49,3.31,4,.6a7.06,7.06,0,0,0,4.08,5.65c-.67,4.1-1.37,8.38-2,12.25l-1.27,0a11.4,11.4,0,0,0,.09-4.62,10.54,10.54,0,0,0-2.42-5.25,43.65,43.65,0,0,0,.72,5.55c.29,1.6.57,3.08.9,4.32l-2.76,0c.52-6.17.6-19.4-8.54-18.83s-8.16,13.43-7.22,19.18l-2.54.08a5.11,5.11,0,0,0,0-1,4.23,4.23,0,0,0-1.11-2.54,4.25,4.25,0,0,0-.61,2.71,4.55,4.55,0,0,0,.19.92l-1,0a7.89,7.89,0,0,0-.14-3.52,7.25,7.25,0,0,0-2.44-3.9,21,21,0,0,0,.77,4.34,25.36,25.36,0,0,0,1,3.11l-2.05.08-2.15-14.25h6.13l.19-5.21-6.51.75L271,238l-3.72.74,1.12,6.69-6,.37.75,5.2,5.2-1.11,1.92,13.75-2.31.12a4.3,4.3,0,0,0,.35-.91,4,4,0,0,0-.2-2.71,4,4,0,0,0-1.47,2.28,4.74,4.74,0,0,0-.13,1.43l-.87.06a9.23,9.23,0,0,0,.51-3.8,8.68,8.68,0,0,0-1.83-5,41.64,41.64,0,0,0,.11,5.11c.09,1.37.18,2.65.33,3.75l-1.79.15-.54.05c0-5.11-.47-23.21-10.06-21s-4.82,17.61-3.35,21.67c-.62,0-1.25,0-1.87,0a5,5,0,0,0,.21-1.84,4.54,4.54,0,0,0-1.08-2.69,4.56,4.56,0,0,0-.64,2.82,4.9,4.9,0,0,0,.46,1.72h-2l-.69-7.23-5.66.09.46-7.15s-2.16-.06-4.79-.16a2.82,2.82,0,0,0-.65-2.87l-.05,0a2.5,2.5,0,0,0-.7-.48l0-3.64,3,.18-.25-2.33-2.77-.14,0-2.61-2.25-.75-.18,3.24-3.15-.16.08,2.25,2.87.17h.07c0,.24,0,.48,0,.72a26.21,26.21,0,0,0-.19,3.18,2.67,2.67,0,0,0-.47.36l0,0a2.75,2.75,0,0,0-.72,2.63c-1.94-.11-4-.34-4-.34l1.26,8.07-7.21.1.6,6.25-2.26-.07c.1-1,.13-2.2.15-3.47a36.86,36.86,0,0,0-.07-3.88,5.12,5.12,0,0,0-1.66,3.85,5.39,5.39,0,0,0,1.14,3.49l-2.26-.07,1.76-30.25,11.89-.56,1.49-5.76-14.49,1.49.37-8.92-6.69.74,1.48,7.81-14.86,1.48,1.86,4.46,13-1.85V264l-2.45-.07a4.69,4.69,0,0,0,.53-2.06,4.48,4.48,0,0,0-.76-2.78,4.55,4.55,0,0,0-1,2.72,4.67,4.67,0,0,0,.39,2.09l-1.23,0-.35-22.37-5,.56a3.25,3.25,0,0,0-6.49.37c0,.12,0,.24.05.36l-5,.57,3.93,20.18-3.83-.08a17.78,17.78,0,0,0-.11-2.26,15.93,15.93,0,0,0-.6-3.1,3.84,3.84,0,0,0-1.11,3.29,4.21,4.21,0,0,0,.8,2.06l-1.32,0c-.09-.62-.2-1.27-.32-1.95-.25-1.55-.48-3-.79-4.12a5.86,5.86,0,0,0-.91,4.41,6.54,6.54,0,0,0,.51,1.64l-3.83-.05,6.1-15.72-2.86-.41a2.4,2.4,0,0,0-2.34-3,2.32,2.32,0,0,0-2.39,2.33l-2.82-.41,1.49-6.31-9,.46c-.31-4.71-1.62-12.41-6.88-13.1l-.54-3.54,3.6-.55-.19-2.41-3.77.56-.31-2.05-2.23.74.23,1.65-2.65.4.37,2.41,2.63-.4.47,3.33c-6,1.38-5,9.42-4,13.64l-6.73.34,2.23,7.06-1.43.14a2.59,2.59,0,0,0-2.65-2.2,2.64,2.64,0,0,0-2.71,2.71l-1,.1,2.15,10.27a12.94,12.94,0,0,0-1.36,2.49,12.6,12.6,0,0,0-.87,3.1l-1.39,0a2.83,2.83,0,0,0,.71-1.35,2.64,2.64,0,0,0-.68-2.51,5.47,5.47,0,0,0-1,2.14,5.32,5.32,0,0,0-.1,1.68l-1.63-.09a5.62,5.62,0,0,0,.48-6.73,8.89,8.89,0,0,0-.84,3.33,9.11,9.11,0,0,0,.33,3.4l-2.27-.18-1.72-14,7.82-1.16-.75-3-7.46.94-.71-5.77-4.09.38.74,5.9-3.83.47.3-12.13h11l.55-5.58-11.38-.22.24-9.25-6.14-.56v9.69l-11.14-.22,1.67,6.14h9.47v26.44l-1.35-.17c-.07-.43-.14-.87-.21-1.33-.26-1.85-.42-3.55-.67-4.89a7.32,7.32,0,0,0-1,5.14,6.68,6.68,0,0,0,.18.89l-1.59-.17c-.39-3.23-4.59-35.17-18.66-33.81l-2-7.42,4.64-1.47-1.08-3.84-4.49,1.82-1.51-5.65c-.75,0-4.25.75-4.25.75L91.78,219l-4.5,1.82,1.33,2.66,4.25-1.35L94.55,227c.19.77.37,1.54.59,2.3-9.23,4.85-2.81,26.5-.26,34-4.87,1.5-5.19,3.49-5.19,3.49,0-1,463.67,1,463.67,1A13.41,13.41,0,0,0,547,262.78ZM544,240.51a4.05,4.05,0,0,1,1.91,2.56l-2.26-.34C543.73,242,543.84,241.22,544,240.51Zm-.88,5.52,2.19.33a4.13,4.13,0,0,1-2.51,1.67C542.86,247.36,543,246.69,543.08,246ZM311,240.51a4.05,4.05,0,0,1,1.91,2.56l-2.26-.34C310.73,242,310.85,241.22,311,240.51Zm-.88,5.52,2.19.33a4.07,4.07,0,0,1-2.51,1.67C309.87,247.36,310,246.69,310.08,246ZM129.34,263.77a4,4,0,0,0,.38-1.41,3.66,3.66,0,0,0-1.32-3.27,30.07,30.07,0,0,0-.4,3.12c0,.47-.07.92-.1,1.37l-1.2-.16.29-11.5,4.33-.65,1.62,13ZM144.27,265a7,7,0,0,0,1.67-2.42c.11-.27.18-.53.26-.79l.65,3.11C146,265,145.15,265,144.27,265ZM306.48,247.3a4.07,4.07,0,0,1-1.44-2l1.73.26C306.68,246.11,306.58,246.7,306.48,247.3ZM305.42,242a4,4,0,0,1,2.21-1.78c-.11.66-.22,1.35-.33,2.06Zm21.06,20.77c.06-1,.13-2,.22-3.09.36,1.17.7,2.22,1,3.12Zm37.79,1.16a12,12,0,0,0,.12-4,3,3,0,0,0-1.65,2.52,3.25,3.25,0,0,0,.22,1.52l-.89,0c.19-1.14.32-2.48.46-3.93a43.34,43.34,0,0,0,.33-4.66,7.13,7.13,0,0,0-2,4.49,7.54,7.54,0,0,0,.71,4.12l-1.84,0,.3-12.09,4.33-.65,1.57,12.55ZM539.48,247.3a4.07,4.07,0,0,1-1.44-2l1.73.26C539.67,246.11,539.58,246.7,539.48,247.3ZM538.41,242a4.1,4.1,0,0,1,2.21-1.78c-.1.66-.21,1.35-.32,2.06Z" transform="translate(-87.28 -211.86)"/></svg>